<svg width="849" height="133" viewBox="0 0 849 133" fill="none" xmlns="http://www.w3.org/2000/svg">
<path d="M212.1 35.8C216.1 35.8 219.5 36.3667 222.3 37.5C225.1 38.6333 227.833 40.2333 230.5 42.3C231.233 42.9 231.867 43.2 232.4 43.2C233.733 43.2 234.6 41.2 235 37.2H237.3C237.033 41.5333 236.9 49.2 236.9 60.2H234.6C233.867 55.8667 233.2 52.7667 232.6 50.9C232 48.9667 231 47.1333 229.6 45.4C227.6 42.8 225.033 40.8667 221.9 39.6C218.833 38.2667 215.5 37.6 211.9 37.6C207.567 37.6 203.767 39.0333 200.5 41.9C197.3 44.7667 194.8 48.8667 193 54.2C191.2 59.4667 190.3 65.6667 190.3 72.8C190.3 80.0667 191.267 86.3 193.2 91.5C195.133 96.7 197.8 100.667 201.2 103.4C204.667 106.067 208.567 107.4 212.9 107.4C216.233 107.4 219.467 106.767 222.6 105.5C225.733 104.233 228.2 102.333 230 99.8C231.333 97.9333 232.3 95.9333 232.9 93.8C233.5 91.6667 234.067 88.4 234.6 84H236.9C236.9 95.4667 237.033 103.467 237.3 108H235C234.8 105.867 234.5 104.367 234.1 103.5C233.767 102.567 233.267 102.1 232.6 102.1C232.067 102.1 231.367 102.367 230.5 102.9C227.5 105.033 224.633 106.667 221.9 107.8C219.167 108.867 215.867 109.4 212 109.4C205.667 109.4 200.1 107.967 195.3 105.1C190.567 102.233 186.867 98.1 184.2 92.7C181.6 87.2333 180.3 80.7333 180.3 73.2C180.3 65.8667 181.633 59.3667 184.3 53.7C187.033 48.0333 190.8 43.6333 195.6 40.5C200.467 37.3667 205.967 35.8 212.1 35.8ZM298.848 99.6C300.648 103.733 302.948 105.867 305.748 106V108C303.081 107.8 299.514 107.7 295.048 107.7C289.314 107.7 285.048 107.8 282.248 108V106C284.714 105.867 286.514 105.533 287.648 105C288.848 104.467 289.448 103.567 289.448 102.3C289.448 101.233 288.981 99.6667 288.048 97.6L282.948 86.2H258.648L255.248 93.7C254.114 96.3 253.548 98.4333 253.548 100.1C253.548 101.833 254.148 103.2 255.348 104.2C256.614 105.133 258.614 105.733 261.348 106V108C259.348 107.8 256.314 107.7 252.248 107.7C248.181 107.7 245.281 107.8 243.548 108V106C245.348 105.533 246.881 104.533 248.148 103C249.414 101.4 250.614 99.3 251.748 96.7L273.848 46.7H275.448L298.848 99.6ZM282.148 84.2L270.848 58.8L259.448 84.2H282.148ZM368.669 103.8C367.402 105.6 365.935 107 364.269 108C362.669 108.933 360.735 109.4 358.469 109.4C352.869 109.4 349.435 106.867 348.169 101.8L345.069 89.3C344.135 85.5667 342.735 83.0667 340.869 81.8C339.069 80.5333 336.369 79.9 332.769 79.9H327.069V97.4C327.069 99.9333 327.269 101.767 327.669 102.9C328.069 104.033 328.802 104.8 329.869 105.2C331.002 105.6 332.769 105.867 335.169 106V108C332.102 107.8 327.869 107.7 322.469 107.7C316.735 107.7 312.469 107.8 309.669 108V106C312.069 105.867 313.802 105.6 314.869 105.2C316.002 104.8 316.769 104.033 317.169 102.9C317.569 101.767 317.769 99.9333 317.769 97.4V57.8C317.769 55.2667 317.569 53.4333 317.169 52.3C316.769 51.1667 316.002 50.4 314.869 50C313.802 49.6 312.069 49.3333 309.669 49.2V47.2C312.469 47.4 316.535 47.5 321.869 47.5L332.069 47.4C333.202 47.3333 334.502 47.3 335.969 47.3C343.435 47.3 349.135 48.7 353.069 51.5C357.069 54.3 359.069 57.9333 359.069 62.4C359.069 66.2667 357.502 69.8 354.369 73C351.302 76.2 346.235 78.2333 339.169 79.1C340.502 79.2333 341.635 79.3667 342.569 79.5C346.102 80.0333 348.902 81.1 350.969 82.7C353.035 84.3 354.502 86.8667 355.369 90.4L357.569 99.5C358.102 101.833 358.669 103.5 359.269 104.5C359.935 105.433 360.769 105.9 361.769 105.9C363.435 105.9 365.269 104.767 367.269 102.5L368.669 103.8ZM333.469 49.2C331.669 49.2 330.302 49.4333 329.369 49.9C328.502 50.3667 327.902 51.2 327.569 52.4C327.235 53.6 327.069 55.4 327.069 57.8V77.9H333.769C339.635 77.9 343.635 76.6667 345.769 74.2C347.969 71.6667 349.069 68.1 349.069 63.5C349.069 58.7 347.835 55.1333 345.369 52.8C342.969 50.4 339.002 49.2 333.469 49.2ZM397.571 49.2C395.171 49.3333 393.404 49.6 392.271 50C391.204 50.4 390.471 51.1667 390.071 52.3C389.671 53.4333 389.471 55.2667 389.471 57.8V97.4C389.471 99.9333 389.671 101.767 390.071 102.9C390.471 104.033 391.204 104.8 392.271 105.2C393.404 105.533 395.171 105.7 397.571 105.7H403.871C408.471 105.7 412.038 104.333 414.571 101.6C417.171 98.8667 418.738 94.3333 419.271 88H421.571C421.371 90.0667 421.271 92.8 421.271 96.2C421.271 99.6667 421.504 103.6 421.971 108C417.638 107.8 410.338 107.7 400.071 107.7C387.738 107.7 378.404 107.8 372.071 108V106C374.471 105.867 376.204 105.6 377.271 105.2C378.404 104.8 379.171 104.033 379.571 102.9C379.971 101.767 380.171 99.9333 380.171 97.4V57.8C380.171 55.2667 379.971 53.4333 379.571 52.3C379.171 51.1667 378.404 50.4 377.271 50C376.204 49.6 374.471 49.3333 372.071 49.2V47.2C374.871 47.4 379.138 47.5 384.871 47.5C390.204 47.5 394.438 47.4 397.571 47.2V49.2ZM459.342 45.8C465.476 45.8 470.842 47.0333 475.442 49.5C480.109 51.9 483.709 55.4667 486.242 60.2C488.776 64.8667 490.042 70.4667 490.042 77C490.042 83.4 488.709 89.0667 486.042 94C483.442 98.8667 479.809 102.667 475.142 105.4C470.476 108.067 465.176 109.4 459.242 109.4C453.109 109.4 447.709 108.2 443.042 105.8C438.442 103.333 434.876 99.7667 432.342 95.1C429.809 90.3667 428.542 84.7333 428.542 78.2C428.542 71.8 429.842 66.1667 432.442 61.3C435.109 56.3667 438.776 52.5667 443.442 49.9C448.109 47.1667 453.409 45.8 459.342 45.8ZM458.942 47.6C454.876 47.6 451.276 48.9 448.142 51.5C445.076 54.0333 442.709 57.6 441.042 62.2C439.376 66.7333 438.542 71.9333 438.542 77.8C438.542 83.7333 439.476 88.9667 441.342 93.5C443.209 98.0333 445.742 101.533 448.942 104C452.142 106.4 455.709 107.6 459.642 107.6C463.709 107.6 467.276 106.333 470.342 103.8C473.476 101.2 475.876 97.6333 477.542 93.1C479.209 88.5 480.042 83.2667 480.042 77.4C480.042 71.4667 479.109 66.2333 477.242 61.7C475.376 57.1667 472.842 53.7 469.642 51.3C466.442 48.8333 462.876 47.6 458.942 47.6ZM520.913 45.8C523.846 45.8 526.146 46.1333 527.813 46.8C529.546 47.4 531.313 48.3 533.113 49.5C534.579 50.4333 535.713 50.9 536.513 50.9C537.113 50.9 537.579 50.5667 537.913 49.9C538.246 49.1667 538.513 48.0333 538.713 46.5H541.013C540.679 49.9667 540.513 56.1 540.513 64.9H538.213C537.813 60.1 536.246 56.0333 533.513 52.7C530.846 49.3667 526.946 47.7 521.813 47.7C518.279 47.7 515.346 48.6333 513.013 50.5C510.746 52.3667 509.613 54.7333 509.613 57.6C509.613 59.6667 510.113 61.4667 511.113 63C512.179 64.5333 513.513 65.8667 515.113 67C516.779 68.0667 519.113 69.4 522.113 71L525.413 72.8C529.546 75 532.846 76.9667 535.313 78.7C537.846 80.4333 539.879 82.4333 541.413 84.7C542.946 86.9 543.713 89.4667 543.713 92.4C543.713 97.8 541.746 102 537.813 105C533.946 107.933 529.079 109.4 523.213 109.4C520.013 109.4 517.379 109.067 515.313 108.4C513.313 107.733 511.379 106.833 509.513 105.7C508.046 104.767 506.913 104.3 506.113 104.3C505.513 104.3 505.046 104.667 504.713 105.4C504.379 106.067 504.113 107.167 503.913 108.7H501.613C501.879 105.433 502.013 98.1 502.013 86.7H504.313C504.779 92.9 506.446 97.9 509.313 101.7C512.179 105.5 516.579 107.4 522.513 107.4C525.846 107.4 528.713 106.467 531.113 104.6C533.579 102.667 534.813 99.8333 534.813 96.1C534.813 93.9 534.179 91.9667 532.913 90.3C531.646 88.5667 529.946 87.0333 527.813 85.7C525.679 84.3667 522.713 82.7 518.913 80.7C513.446 77.9 509.279 75.1 506.413 72.3C503.546 69.5 502.113 65.8667 502.113 61.4C502.113 56.4667 503.913 52.6333 507.513 49.9C511.179 47.1667 515.646 45.8 520.913 45.8Z" fill="white"/>
<path d="M627.7 99.6C629.3 103.733 631.6 105.867 634.6 106V108C631.933 107.8 628.367 107.7 623.9 107.7C618.167 107.7 613.9 107.8 611.1 108V106C613.633 105.867 615.433 105.567 616.5 105.1C617.633 104.567 618.2 103.633 618.2 102.3C618.2 101.167 617.8 99.6 617 97.6L610.9 81.2H586.7L582.6 91.8C581.267 95.4 580.6 98.1333 580.6 100C580.6 102.067 581.3 103.567 582.7 104.5C584.167 105.433 586.367 105.933 589.3 106V108C585.5 107.8 581.667 107.7 577.8 107.7C574.8 107.7 572.3 107.8 570.3 108V106C573.633 105.2 576.267 102.3 578.2 97.3L601.7 36.7H603.3L627.7 99.6ZM610.1 79.2L598.9 49.3L587.5 79.2H610.1ZM689.188 47.5C691.988 47.5 694.222 47.4 695.888 47.2V49.2C694.022 49.6667 692.522 50.6 691.388 52C690.255 53.3333 688.955 55.6667 687.488 59L665.588 108.5H663.988L640.588 55.6C638.788 51.4667 636.488 49.3333 633.688 49.2V47.2C636.422 47.4 639.988 47.5 644.388 47.5C650.122 47.5 654.388 47.4 657.188 47.2V49.2C654.722 49.3333 652.888 49.6667 651.688 50.2C650.555 50.7333 649.988 51.6333 649.988 52.9C649.988 53.9667 650.455 55.5333 651.388 57.6L668.588 96.4L683.488 63.2C685.155 59.6 685.988 56.7667 685.988 54.7C685.988 52.8333 685.322 51.5 683.988 50.7C682.722 49.8333 680.755 49.3333 678.088 49.2V47.2C680.088 47.4 683.788 47.5 689.188 47.5ZM725.309 49.2C722.909 49.3333 721.143 49.6 720.009 50C718.943 50.4 718.209 51.1667 717.809 52.3C717.409 53.4333 717.209 55.2667 717.209 57.8V97.4C717.209 99.9333 717.409 101.767 717.809 102.9C718.209 104.033 718.943 104.8 720.009 105.2C721.143 105.6 722.909 105.867 725.309 106V108C722.243 107.8 718.009 107.7 712.609 107.7C706.876 107.7 702.609 107.8 699.809 108V106C702.209 105.867 703.943 105.6 705.009 105.2C706.143 104.8 706.909 104.033 707.309 102.9C707.709 101.767 707.909 99.9333 707.909 97.4V57.8C707.909 55.2667 707.709 53.4333 707.309 52.3C706.909 51.1667 706.143 50.4 705.009 50C703.943 49.6 702.209 49.3333 699.809 49.2V47.2C702.609 47.4 706.876 47.5 712.609 47.5C717.943 47.5 722.176 47.4 725.309 47.2V49.2ZM759.196 49.2C756.796 49.3333 755.029 49.6 753.896 50C752.829 50.4 752.096 51.1667 751.696 52.3C751.296 53.4333 751.096 55.2667 751.096 57.8V97.4C751.096 99.9333 751.296 101.767 751.696 102.9C752.096 104.033 752.829 104.8 753.896 105.2C755.029 105.533 756.796 105.7 759.196 105.7H765.496C770.096 105.7 773.663 104.333 776.196 101.6C778.796 98.8667 780.363 94.3333 780.896 88H783.196C782.996 90.0667 782.896 92.8 782.896 96.2C782.896 99.6667 783.129 103.6 783.596 108C779.263 107.8 771.963 107.7 761.696 107.7C749.363 107.7 740.029 107.8 733.696 108V106C736.096 105.867 737.829 105.6 738.896 105.2C740.029 104.8 740.796 104.033 741.196 102.9C741.596 101.767 741.796 99.9333 741.796 97.4V57.8C741.796 55.2667 741.596 53.4333 741.196 52.3C740.796 51.1667 740.029 50.4 738.896 50C737.829 49.6 736.096 49.3333 733.696 49.2V47.2C736.496 47.4 740.763 47.5 746.496 47.5C751.829 47.5 756.063 47.4 759.196 47.2V49.2ZM841.82 99.6C843.62 103.733 845.92 105.867 848.72 106V108C846.054 107.8 842.487 107.7 838.02 107.7C832.287 107.7 828.02 107.8 825.22 108V106C827.687 105.867 829.487 105.533 830.62 105C831.82 104.467 832.42 103.567 832.42 102.3C832.42 101.233 831.954 99.6667 831.02 97.6L825.92 86.2H801.62L798.22 93.7C797.087 96.3 796.52 98.4333 796.52 100.1C796.52 101.833 797.12 103.2 798.32 104.2C799.587 105.133 801.587 105.733 804.32 106V108C802.32 107.8 799.287 107.7 795.22 107.7C791.154 107.7 788.254 107.8 786.52 108V106C788.32 105.533 789.854 104.533 791.12 103C792.387 101.4 793.587 99.3 794.72 96.7L816.82 46.7H818.42L841.82 99.6ZM825.12 84.2L813.82 58.8L802.42 84.2H825.12Z" fill="white"/>
<path d="M15.6 74.1L51.1 88.7L48.5 96.4L5.3 78.1V70.1L48.5 51.8L51.1 59.5L15.6 74.1ZM63.5453 122.5H54.0453L87.9453 25.7H97.2453L63.5453 122.5ZM100.124 59.5L102.724 51.8L145.924 70.1V78.1L102.724 96.4L100.124 88.7L135.624 74.1L100.124 59.5Z" fill="white"/>
</svg>
