<svg width="311" height="133" viewBox="0 0 311 133" fill="none" xmlns="http://www.w3.org/2000/svg">
<path d="M204.1 35.8C208.1 35.8 211.5 36.3667 214.3 37.5C217.1 38.6333 219.833 40.2333 222.5 42.3C223.233 42.9 223.867 43.2 224.4 43.2C225.733 43.2 226.6 41.2 227 37.2H229.3C229.033 41.5333 228.9 49.2 228.9 60.2H226.6C225.867 55.8667 225.2 52.7667 224.6 50.9C224 48.9667 223 47.1333 221.6 45.4C219.6 42.8 217.033 40.8667 213.9 39.6C210.833 38.2667 207.5 37.6 203.9 37.6C199.567 37.6 195.767 39.0333 192.5 41.9C189.3 44.7667 186.8 48.8667 185 54.2C183.2 59.4667 182.3 65.6667 182.3 72.8C182.3 80.0667 183.267 86.3 185.2 91.5C187.133 96.7 189.8 100.667 193.2 103.4C196.667 106.067 200.567 107.4 204.9 107.4C208.233 107.4 211.467 106.767 214.6 105.5C217.733 104.233 220.2 102.333 222 99.8C223.333 97.9333 224.3 95.9333 224.9 93.8C225.5 91.6667 226.067 88.4 226.6 84H228.9C228.9 95.4667 229.033 103.467 229.3 108H227C226.8 105.867 226.5 104.367 226.1 103.5C225.767 102.567 225.267 102.1 224.6 102.1C224.067 102.1 223.367 102.367 222.5 102.9C219.5 105.033 216.633 106.667 213.9 107.8C211.167 108.867 207.867 109.4 204 109.4C197.667 109.4 192.1 107.967 187.3 105.1C182.567 102.233 178.867 98.1 176.2 92.7C173.6 87.2333 172.3 80.7333 172.3 73.2C172.3 65.8667 173.633 59.3667 176.3 53.7C179.033 48.0333 182.8 43.6333 187.6 40.5C192.467 37.3667 197.967 35.8 204.1 35.8Z" fill="white"/>
<path d="M303.7 99.6C305.3 103.733 307.6 105.867 310.6 106V108C307.933 107.8 304.367 107.7 299.9 107.7C294.167 107.7 289.9 107.8 287.1 108V106C289.633 105.867 291.433 105.567 292.5 105.1C293.633 104.567 294.2 103.633 294.2 102.3C294.2 101.167 293.8 99.6 293 97.6L286.9 81.2H262.7L258.6 91.8C257.267 95.4 256.6 98.1333 256.6 100C256.6 102.067 257.3 103.567 258.7 104.5C260.167 105.433 262.367 105.933 265.3 106V108C261.5 107.8 257.667 107.7 253.8 107.7C250.8 107.7 248.3 107.8 246.3 108V106C249.633 105.2 252.267 102.3 254.2 97.3L277.7 36.7H279.3L303.7 99.6ZM286.1 79.2L274.9 49.3L263.5 79.2H286.1Z" fill="white"/>
<path d="M15.6 74.1L51.1 88.7L48.5 96.4L5.3 78.1V70.1L48.5 51.8L51.1 59.5L15.6 74.1ZM63.5453 122.5H54.0453L87.9453 25.7H97.2453L63.5453 122.5ZM100.124 59.5L102.724 51.8L145.924 70.1V78.1L102.724 96.4L100.124 88.7L135.624 74.1L100.124 59.5Z" fill="white"/>
</svg>
